<svg xmlns="http://www.w3.org/2000/svg" viewBox="0 0 400 400" width="400" height="400">
  <defs>
    <linearGradient id="bg" x1="0%" y1="0%" x2="100%" y2="100%">
      <stop offset="0%" style="stop-color:#1a472a;stop-opacity:1" />
      <stop offset="100%" style="stop-color:#2d6a47;stop-opacity:1" />
    </linearGradient>
    <radialGradient id="glow" cx="50%" cy="40%" r="50%">
      <stop offset="0%" style="stop-color:#4caf50;stop-opacity:0.3" />
      <stop offset="100%" style="stop-color:#1a472a;stop-opacity:0" />
    </radialGradient>
  </defs>
  <rect width="400" height="400" fill="url(#bg)" rx="8"/>
  <rect width="400" height="400" fill="url(#glow)"/>
  <g transform="translate(200,160)" fill="#4caf50" opacity="0.4">
    <path d="M0-60c-15,0-30,10-35,25s-5,35,5,50c8,12,20,18,30,18s22-6,30-18c10-15,10-35,5-50S15-60,0-60z"/>
    <path d="M-25,30c-12,8-20,20-20,35s8,27,20,35c5-10,12-18,25-18s20,8,25,18c12-8,20-20,20-35s-8-27-20-35c-5,10-12,18-25,18S-20,40-25,30z" opacity="0.6"/>
  </g>
  <text x="200" y="260" text-anchor="middle" font-family="Inter,Arial,sans-serif" font-size="16" fill="#4caf50" opacity="0.6" font-weight="600">NORDLEAF</text>
  <text x="200" y="285" text-anchor="middle" font-family="Inter,Arial,sans-serif" font-size="12" fill="#4caf50" opacity="0.4">Medizinisches Cannabis</text>
</svg>